<svg width="301" height="263" viewBox="0 0 301 263" fill="none" xmlns="http://www.w3.org/2000/svg">
<path d="M150.01 0C67.1559 0 0.0136719 54.5522 0.0136719 121.878C0.0136719 150.936 12.5472 177.544 33.4071 198.462C26.0827 227.989 1.58403 254.304 1.29105 254.597C0.00564431 255.944 -0.342295 257.937 0.408487 259.694C0.650193 261.452 2.82584 262.507 4.69327 262.507C43.5478 262.507 72.6638 243.874 87.0783 232.383C106.239 239.596 127.509 243.757 150.01 243.757C232.863 243.757 300.014 189.204 300.014 121.878C300.014 54.5522 232.863 0 150.01 0ZM98.0356 140.57C96.0434 151.82 85.7306 159.379 70.9646 159.379C68.6026 159.379 66.1305 159.196 63.5874 158.793C59.2455 158.09 54.388 156.332 50.1046 154.75C45.2342 152.992 41.8661 147.332 43.6064 142.463C45.3467 137.594 49.8117 134.242 54.7219 136.468C58.8113 137.932 63.2359 139.661 66.9567 140.241C73.66 141.273 79.1093 140.043 79.5781 137.347C80.1951 133.883 73.2264 132.428 65.1871 130.117C58.0853 128.048 39.2411 122.517 42.5517 103.163C44.9318 89.4633 58.5541 82.1213 76.537 84.9456C79.9976 85.4766 83.8262 86.6121 87.4299 87.8572C92.319 89.5418 94.9183 94.8887 93.2343 99.7755C91.5901 104.71 86.258 107.288 81.3359 105.589C78.7906 104.71 76.0987 103.867 73.6658 103.483C67.0914 102.513 61.5249 103.721 61.0678 106.358C60.476 109.69 66.5699 111.038 72.8982 112.855C82.8594 115.726 101.434 120.999 98.0356 140.57ZM187.511 150.004C187.511 155.186 183.318 159.379 178.135 159.379C172.953 159.379 168.76 155.16 168.76 150.004V121.878L157.516 136.873C153.964 141.597 146.06 141.597 142.504 136.873L131.259 121.878V150.004C131.259 155.186 127.066 159.379 121.884 159.379C116.702 159.379 112.509 155.16 112.509 150.004V93.7525C112.509 89.7241 115.09 86.6625 118.919 84.8577C122.728 83.6308 126.952 84.8921 129.39 88.1332L150.01 115.609L170.629 88.1098C173.065 84.8689 177.309 83.6261 181.1 84.8343C184.932 86.1351 187.511 89.7094 187.511 93.7525V150.004ZM257.415 140.57C255.423 151.82 245.11 159.379 230.344 159.379C227.982 159.379 225.51 159.196 222.967 158.793C218.133 158.061 213.263 156.303 208.974 154.747C204.104 152.989 200.736 147.329 202.476 142.459C204.216 137.59 208.681 134.748 213.591 136.488C217.681 137.952 222.105 139.681 225.826 140.261C232.529 141.268 238.002 140.041 238.459 137.367C239.076 133.903 232.108 132.448 224.068 130.137C216.967 128.068 198.122 122.537 201.433 103.183C203.795 89.4833 217.4 82.1413 235.418 84.9656C238.879 85.4965 242.707 86.632 246.311 87.8772C251.2 89.5618 253.8 94.9086 252.116 99.7954C250.431 104.685 245.119 107.302 240.197 105.6C237.652 104.721 234.96 103.878 232.527 103.494C225.97 102.524 220.386 103.732 219.929 106.369C219.855 109.69 225.949 111.038 232.277 112.855C242.239 115.726 260.813 120.999 257.415 140.57Z" fill="#FF505F"/>
</svg>
