<svg width="7" height="11" viewBox="0 0 7 11" fill="none" xmlns="http://www.w3.org/2000/svg">
<path d="M2.07143 2.8V1.9C2.07143 1.66131 2.14668 1.43239 2.28064 1.2636C2.41459 1.09482 2.59627 1 2.78571 1H4.21429C4.40373 1 4.58541 1.09482 4.71936 1.2636C4.85332 1.43239 4.92857 1.66131 4.92857 1.9V2.8M6 2.8V9.1C6 9.3387 5.92474 9.56761 5.79079 9.7364C5.65684 9.90518 5.47515 10 5.28571 10H1.71429C1.52485 10 1.34316 9.90518 1.20921 9.7364C1.07525 9.56761 1 9.3387 1 9.1V2.8H6Z" stroke="#191919" stroke-linecap="round" stroke-linejoin="round"/>
</svg>
