<svg width="20" height="20" viewBox="0 0 20 20" fill="none" xmlns="http://www.w3.org/2000/svg">
<path d="M10 0.3125C4.47984 0.3125 0 4.65234 0 10C0 15.3477 4.47984 19.6875 10 19.6875C15.5202 19.6875 20 15.3477 20 10C20 4.65234 15.5202 0.3125 10 0.3125ZM14.621 9.15625L10.0645 15.1211L5.52016 9.15625C5.16935 8.69141 4.75 7.1875 6.06855 6.34375C7.20161 5.63672 8.27016 6.17969 8.83064 6.80859C9.47177 7.50781 10.7097 7.46875 11.3185 6.80859C11.879 6.17969 12.9476 5.63672 14.0645 6.34375C15.3911 7.1875 14.9758 8.6875 14.621 9.15625V9.15625Z" fill="#FF505F"/>
</svg>
