<svg width="5" height="19" viewBox="0 0 5 19" fill="none" xmlns="http://www.w3.org/2000/svg">
<path d="M3.08333 9.33333C3.08333 8.75804 2.61696 8.29167 2.04167 8.29167C1.46637 8.29167 1 8.75804 1 9.33333C1 9.90863 1.46637 10.375 2.04167 10.375C2.61696 10.375 3.08333 9.90863 3.08333 9.33333Z" stroke="white" stroke-width="2" stroke-linecap="round" stroke-linejoin="round"/>
<path d="M3.08333 2.04165C3.08333 1.46635 2.61696 0.999981 2.04167 0.999981C1.46637 0.999981 1 1.46635 1 2.04165C1 2.61694 1.46637 3.08331 2.04167 3.08331C2.61696 3.08331 3.08333 2.61694 3.08333 2.04165Z" stroke="white" stroke-width="2" stroke-linecap="round" stroke-linejoin="round"/>
<path d="M3.08333 16.625C3.08333 16.0497 2.61696 15.5833 2.04167 15.5833C1.46637 15.5833 1 16.0497 1 16.625C1 17.2003 1.46637 17.6667 2.04167 17.6667C2.61696 17.6667 3.08333 17.2003 3.08333 16.625Z" stroke="white" stroke-width="2" stroke-linecap="round" stroke-linejoin="round"/>
</svg>
