<svg width="11" height="10" viewBox="0 0 11 10" fill="none" xmlns="http://www.w3.org/2000/svg">
<path d="M9.51846 5.75112C9.51851 5.76263 9.51619 5.76841 9.51511 5.77039L6.15365 8.91565L6.14834 7.26541L6.14674 6.7684L5.64973 6.76702C4.0947 6.7627 2.79949 6.58961 1.90233 6.08477C1.46505 5.83872 1.12652 5.51594 0.892907 5.0915C0.657752 4.66427 0.513113 4.10509 0.510727 3.36474C0.507711 2.4287 0.979732 1.47121 1.57329 0.833351C1.26471 2.1764 1.37185 3.23114 2.09178 3.94482C2.47718 4.32687 2.99284 4.55957 3.57951 4.70145C4.16638 4.84337 4.85821 4.90249 5.63272 4.91243L6.14078 4.91895L6.13914 4.41086L6.13329 2.59417L9.50344 5.70707C9.51208 5.71764 9.5184 5.73319 9.51846 5.75112ZM9.51627 5.76931L9.51623 5.76934L9.51627 5.76931Z" stroke="black"/>
</svg>
