<svg width="464" height="464" viewBox="0 0 464 464" fill="none" xmlns="http://www.w3.org/2000/svg">
<path d="M464 240C464 363.4 363.5 463.9 240.1 463.9C191.24 463.9 144.91 448.32 105.9 419.04C91.76 408.45 88.9 388.38 99.509 374.23C110.119 360.14 130.199 357.26 144.309 367.855C172.149 388.765 205.309 399.795 240.199 399.795C328.3 399.8 400 328.1 400 240C400 151.9 328.33 80.2 240.2 80.2C189.9 80.22 142.6 104.3 112.6 144H176C193.67 144 208 158.31 208 176C208 193.69 193.7 208 176 208H32C14.33 208 0 193.69 0 176V32C0 14.31 14.33 0 32 0C49.67 0 64 14.31 64 32V102.23C106.1 48.58 170.1 16.11 240.1 16.11C363.5 16.11 464 116.6 464 240Z" fill="#000000"/>
</svg>
